<?xml version="1.0" encoding="utf-8"?>
<!-- Generator: Adobe Illustrator 27.5.0, SVG Export Plug-In . SVG Version: 6.00 Build 0)  -->
<svg version="1.1" id="Layer_2_00000181785954216847344110000018315607615962602136_"
	 xmlns="http://www.w3.org/2000/svg" xmlns:xlink="http://www.w3.org/1999/xlink" x="0px" y="0px" viewBox="0 0 800 169.1"
	 style="enable-background:new 0 0 800 169.1;" xml:space="preserve">
<style type="text/css">
	.st0{fill:none;stroke:#000000;stroke-width:4;stroke-linecap:round;stroke-miterlimit:10;}
	.st1{fill:url(#SVGID_1_);}
</style>
<g>
	<g>
		<path d="M61.2,4.7l-10.9,52c-1.8,8.5-5.1,15-9.9,19.4c-4.8,4.4-11,6.6-18.4,6.6c-7,0-12.4-1.8-16.3-5.4C1.9,73.6,0,68.6,0,62
			c0-2.6,0.3-5.4,1-8.4l1.6-7.3c1.8-8.2,5-14.5,9.5-18.9s10.3-6.5,17.1-6.5s11.4,1.9,14.1,5.7l4.6-21.9c0.3-1.3,0.7-2.1,1.3-2.6
			c0.6-0.5,1.5-0.7,3-0.7h6.2c1.2,0,2,0.1,2.5,0.4c0.5,0.3,0.7,0.7,0.7,1.4v0.5C61.4,3.8,61.4,4.2,61.2,4.7L61.2,4.7z M37.2,56.2
			l1.9-8.5c0.5-2.2,0.7-4.1,0.7-5.8c0-6.4-3.2-9.6-9.7-9.6c-3.9,0-6.9,1.2-9.2,3.6s-4,6.3-5.1,11.7l-1.9,8.6c-0.4,2-0.7,3.9-0.7,5.6
			c0,6.4,3.2,9.6,9.6,9.6c3.8,0,6.9-1.2,9.2-3.6C34.2,65.3,36,61.5,37.2,56.2L37.2,56.2z"/>
		<path d="M83.2,26.7l-0.9,4.4c3.7-5.7,9.1-8.6,16.2-8.6c2.4,0,3.6,0.8,3.6,2.2c0,0.5,0,0.9-0.1,1.1l-1.2,5.8
			c-0.3,1.3-0.7,2.1-1.1,2.5c-0.4,0.4-1.2,0.6-2.3,0.6h-2c-9,0-14.5,4.5-16.4,13.7l-6.3,29.4c-0.3,1.3-0.7,2.1-1.3,2.6
			s-1.6,0.7-3,0.7h-6.4c-1.8,0-2.7-0.8-2.7-2.3c0-0.5,0.1-1.2,0.2-1.9l10.9-51.2c0.3-1.3,0.7-2.1,1.3-2.6c0.6-0.5,1.6-0.7,3-0.7h6.2
			c1.8,0,2.7,0.8,2.7,2.4C83.4,25.4,83.3,26,83.2,26.7z"/>
		<path d="M123.6,71.4c2.4,0,4.4-0.4,6-1.3c1.6-0.9,3.1-2.4,4.4-4.5c0.7-1.3,1.9-1.9,3.8-1.9h6c1.9,0,2.8,0.6,2.9,1.8
			c0,1.6-0.6,3.5-1.9,5.7c-1.3,2.2-2.9,4.1-4.8,5.7c-4.7,3.9-10.1,5.8-16.3,5.8c-14.9,0-22.5-6.6-22.7-19.9c0-1.6,0.1-3.1,0.2-4.6
			c0.2-1.5,0.4-3,0.7-4.6l1.2-6.4c1.7-8.6,5-15.1,10-19.6s11.3-6.7,19.1-6.7c6.4,0,11.4,1.4,14.9,4.2c3.5,2.8,5.3,6.8,5.3,12
			c0,5.9-2,10.5-6,13.8c-4,3.3-9.6,5-16.7,5h-15.1c-0.4,2-0.7,4.3-0.7,6.9C113.9,68.6,117.1,71.4,123.6,71.4L123.6,71.4z
			 M130.6,31.7c-7.2,0-12,4.7-14.2,14.2h11.9c3.5,0,6.2-0.7,8.1-2.1c1.9-1.4,2.9-3.4,2.9-6C139.2,33.7,136.4,31.7,130.6,31.7z"/>
		<path d="M165,81.1h-6.3c-1.8,0-2.7-0.8-2.7-2.3c0-0.5,0.1-1.2,0.2-1.9l10.9-51.2c0.3-1.3,0.7-2.1,1.3-2.6c0.6-0.5,1.6-0.7,3.1-0.7
			h6.3c1.8,0,2.7,0.8,2.7,2.4c0,0.5-0.1,1.2-0.2,1.9l-10.9,51.2c-0.3,1.3-0.7,2.1-1.3,2.6S166.5,81.1,165,81.1L165,81.1z M178.3,0
			c4.6,0,6.9,2,6.9,6.2c0,0.9-0.1,1.9-0.3,2.9c-1.1,4.5-3.8,6.7-8.3,6.7s-6.9-2.1-6.9-6.1c0-1,0.1-1.9,0.3-2.9
			C171.1,2.2,173.8,0,178.3,0z"/>
		<path d="M196.2,66.6c1,3.9,4.3,5.8,10,5.8c2.8,0,5-0.6,6.7-1.9c1.7-1.3,2.5-3,2.5-5.2c0-1.7-0.7-3.2-2.2-4.5
			c-1.5-1.3-4.2-2.9-8.2-4.8l-5.1-2.5c-6.6-3.1-9.9-7.7-9.9-14c0-5.7,2.1-10.2,6.3-13.6s9.8-5.1,16.8-5.1c4.2,0,7.9,0.6,11.1,1.9
			c3.2,1.2,5.8,2.9,7.7,5.1c1.9,2.2,2.8,4.6,2.8,7.4c0,1.7-0.3,2.8-0.8,3.3s-1.8,0.7-3.7,0.7h-5.9c-1,0-1.7-0.2-2.1-0.5
			s-0.7-1.1-0.9-2.2c-0.8-3.7-3.7-5.6-8.8-5.6c-6,0-8.9,2.3-8.9,6.9c0,1.6,0.5,3,1.5,3.9s2.9,2.1,5.8,3.4l5.1,2.2
			c8.7,3.7,13,8.8,13,15.3s-2.1,11.2-6.2,14.7c-4.1,3.5-9.9,5.3-17.4,5.3c-6.8,0-12.2-1.4-16.3-4.1c-4.1-2.7-6.1-6.3-6.1-10.7
			c0-1.7,0.3-2.8,0.8-3.3c0.5-0.5,1.8-0.7,3.7-0.7h5.6c1,0,1.8,0.2,2.2,0.6C195.5,64.8,195.9,65.5,196.2,66.6L196.2,66.6z"/>
		<path d="M262.6,71.4c2.4,0,4.4-0.4,6-1.3s3.1-2.4,4.4-4.5c0.7-1.3,1.9-1.9,3.8-1.9h6c1.9,0,2.8,0.6,2.9,1.8c0,1.6-0.6,3.5-1.9,5.7
			s-2.9,4.1-4.8,5.7c-4.7,3.9-10.1,5.8-16.3,5.8c-14.9,0-22.5-6.6-22.7-19.9c0-1.6,0.1-3.1,0.2-4.6c0.1-1.5,0.4-3,0.7-4.6l1.2-6.4
			c1.7-8.6,5-15.1,10-19.6c4.9-4.5,11.3-6.7,19.1-6.7c6.4,0,11.4,1.4,14.9,4.2c3.5,2.8,5.3,6.8,5.3,12c0,5.9-2,10.5-6,13.8
			c-4,3.3-9.6,5-16.7,5h-15.1c-0.4,2-0.7,4.3-0.7,6.9C252.9,68.6,256.1,71.4,262.6,71.4L262.6,71.4z M269.6,31.7
			c-7.2,0-12,4.7-14.2,14.2h11.9c3.5,0,6.2-0.7,8.1-2.1c1.9-1.4,2.9-3.4,2.9-6C278.2,33.7,275.4,31.7,269.6,31.7z"/>
		<path d="M319.6,71.4c2.4,0,4.4-0.4,6-1.3s3.1-2.4,4.4-4.5c0.7-1.3,1.9-1.9,3.8-1.9h6c1.9,0,2.8,0.6,2.9,1.8c0,1.6-0.6,3.5-1.9,5.7
			s-2.9,4.1-4.8,5.7c-4.7,3.9-10.1,5.8-16.3,5.8c-14.9,0-22.5-6.6-22.7-19.9c0-1.6,0.1-3.1,0.2-4.6c0.1-1.5,0.4-3,0.7-4.6l1.2-6.4
			c1.7-8.6,5-15.1,10-19.6c4.9-4.5,11.3-6.7,19.1-6.7c6.4,0,11.4,1.4,14.9,4.2c3.5,2.8,5.3,6.8,5.3,12c0,5.9-2,10.5-6,13.8
			c-4,3.3-9.6,5-16.7,5h-15.1c-0.5,2-0.7,4.3-0.7,6.9C310,68.6,313.2,71.4,319.6,71.4L319.6,71.4z M326.7,31.7
			c-7.2,0-12,4.7-14.2,14.2h11.9c3.5,0,6.2-0.7,8.1-2.1c1.9-1.4,2.9-3.4,2.9-6C335.3,33.7,332.4,31.7,326.7,31.7z"/>
		<path d="M376,26.7l-0.3,1.5c3.8-4.9,8.8-7.3,15-7.3c5,0,9,1.5,12,4.5s4.5,7,4.5,12.1c0,1.9-0.2,3.8-0.7,5.8l-7.4,34.6
			c-0.3,1.3-0.7,2.1-1.2,2.6c-0.5,0.4-1.5,0.7-3,0.7h-6.4c-1.8,0-2.7-0.8-2.7-2.3c0-0.5,0.1-1.2,0.2-1.9l7.2-33.7
			c0.2-1,0.3-1.9,0.3-2.8c0-2.4-0.7-4.3-2.1-5.7s-3.4-2.1-5.9-2.1c-3.2,0-6,1.1-8.3,3.4s-3.9,5.3-4.8,9.2l-6.9,32.8
			c-0.3,1.3-0.7,2.1-1.3,2.6s-1.5,0.7-3,0.7h-6.4c-1.8,0-2.7-0.8-2.7-2.3c0-0.5,0.1-1.2,0.2-1.9l10.9-51.2c0.3-1.3,0.7-2.1,1.3-2.6
			c0.6-0.5,1.5-0.7,3-0.7h6.2c1.8,0,2.7,0.8,2.7,2.4C376.3,25.3,376.2,26,376,26.7L376,26.7z"/>
		<path d="M425.5,66.6c1,3.9,4.3,5.8,10,5.8c2.8,0,5-0.6,6.7-1.9c1.7-1.3,2.5-3,2.5-5.2c0-1.7-0.7-3.2-2.2-4.5
			c-1.5-1.3-4.2-2.9-8.2-4.8l-5.1-2.5c-6.6-3.1-9.9-7.7-9.9-14c0-5.7,2.1-10.2,6.3-13.6c4.2-3.4,9.8-5.1,16.8-5.1
			c4.2,0,7.9,0.6,11.1,1.9c3.2,1.2,5.8,2.9,7.7,5.1c1.9,2.2,2.8,4.6,2.8,7.4c0,1.7-0.3,2.8-0.8,3.3s-1.8,0.7-3.7,0.7h-5.9
			c-1,0-1.7-0.2-2.1-0.5s-0.7-1.1-1-2.2c-0.8-3.7-3.7-5.6-8.8-5.6c-6,0-9,2.3-9,6.9c0,1.6,0.5,3,1.5,3.9s2.9,2.1,5.8,3.4l5.1,2.2
			c8.7,3.7,13,8.8,13,15.3S456.1,74,452,77.5c-4.1,3.5-9.9,5.3-17.4,5.3c-6.8,0-12.2-1.4-16.3-4.1c-4.1-2.7-6.1-6.3-6.1-10.7
			c0-1.7,0.3-2.8,0.8-3.3c0.5-0.5,1.8-0.7,3.7-0.7h5.6c1,0,1.8,0.2,2.2,0.6C424.9,64.8,425.2,65.5,425.5,66.6L425.5,66.6z"/>
		<path d="M498,10.3l-2.6,12.2h10c1.5,0,2.2,0.6,2.2,1.9c0,0.6,0,1-0.1,1.2l-1,4.7c-0.3,1.3-0.7,2.1-1.1,2.5
			c-0.5,0.4-1.2,0.6-2.4,0.6h-9.9l-6,28.1c-0.3,1.6-0.5,2.7-0.5,3.4c0,3.1,2,4.7,5.9,4.7h4.9c1.5,0,2.2,0.7,2.2,2.1
			c0,0.4,0,0.8-0.1,1l-1.1,5.3c-0.3,1.3-0.8,2.2-1.6,2.6c-0.8,0.4-2.3,0.6-4.7,0.6h-1.7c-5.9,0-10.2-1.1-13-3.4
			c-2.8-2.3-4.2-5.8-4.2-10.7c0-1.1,0-2.2,0.2-3.4c0.1-1.2,0.4-2.6,0.7-4.1l5.6-26.1h-5.8c-1.6,0-2.4-0.6-2.4-1.8c0-0.1,0-0.3,0-0.6
			c0-0.2,0.1-0.5,0.2-0.8l1-4.7c0.3-1.3,0.7-2.1,1.1-2.5c0.5-0.4,1.2-0.6,2.4-0.6h5.7l2.8-13.2c0.3-1.3,0.8-2.1,1.3-2.6
			s1.6-0.7,3-0.7h6.3c1.8,0,2.7,0.8,2.7,2.3C498.3,8.9,498.2,9.5,498,10.3L498,10.3z"/>
		<path d="M550.5,81.1h-6.2c-1.8,0-2.7-0.8-2.7-2.3c0-0.5,0.1-1.2,0.2-1.9l0.1-0.6c-2.3,1.9-4.5,3.2-6.7,4c-2.2,0.8-4.6,1.2-7.3,1.2
			c-6,0-10.6-1.8-13.9-5.3c-3.3-3.5-4.9-8.5-4.9-14.9c0-2.8,0.3-5.8,1-9l1.1-5.2c4-17.5,12.9-26.3,26.8-26.3c3.5,0,6.5,0.6,8.9,1.9
			s4.1,3.1,5.1,5.4l0.6-2.5c0.3-1.3,0.7-2.1,1.3-2.6c0.6-0.5,1.5-0.7,3-0.7h6.3c1.8,0,2.7,0.8,2.7,2.4c0,0.5-0.1,1.2-0.2,1.9
			l-10.9,51.2c-0.3,1.3-0.7,2.1-1.2,2.6C553,80.9,552,81.1,550.5,81.1L550.5,81.1z M546.4,54.7l1.6-7.4c0.5-2,0.7-3.8,0.7-5.4
			c0-6.5-3.2-9.7-9.7-9.7c-3.8,0-6.9,1.2-9.2,3.6s-4,6.2-5,11.4l-1.6,7.4c-0.5,2-0.7,3.9-0.7,5.6c0,6.7,3.2,10.1,9.5,10.1
			c3.8,0,6.9-1.3,9.2-3.8C543.5,63.9,545.3,60,546.4,54.7L546.4,54.7z"/>
		<path d="M582.4,81.1h-6.3c-1.8,0-2.7-0.8-2.7-2.3c0-0.5,0.1-1.2,0.2-1.9l9.2-43.4h-5.6c-1.6,0-2.3-0.6-2.3-1.8
			c0-0.1,0-0.3,0.1-0.6s0.1-0.5,0.2-0.8l1-4.7c0.3-1.3,0.7-2.1,1.1-2.5s1.2-0.6,2.3-0.6h5.6l1-4.2c1.3-5.7,3.9-10,7.7-12.7
			c3.8-2.7,8.9-4.1,15.5-4.1h1.9c2.5,0,4.2,0.1,4.9,0.5s1.1,0.9,1.1,1.9c0,0.4-0.1,1-0.2,1.8l-0.8,3.7c-0.3,1.2-0.7,2-1.1,2.5
			c-0.5,0.4-1.3,0.7-2.5,0.7h-3.2c-3.2,0-5.5,0.6-6.9,1.7s-2.6,3.3-3.5,6.5l-0.5,1.9h9.7c1.5,0,2.2,0.6,2.2,1.9c0,0.5,0,0.9-0.1,1.2
			l-1,4.7c-0.3,1.3-0.7,2.1-1.1,2.5s-1.2,0.6-2.3,0.6h-9.7l-9.4,44.4c-0.3,1.3-0.8,2.1-1.3,2.6S583.8,81.1,582.4,81.1L582.4,81.1z"
			/>
		<path d="M633.1,71.4c2.4,0,4.4-0.4,6-1.3c1.6-0.9,3.1-2.4,4.4-4.5c0.7-1.3,1.9-1.9,3.8-1.9h6c1.9,0,2.8,0.6,2.9,1.8
			c0,1.6-0.6,3.5-1.9,5.7s-2.9,4.1-4.8,5.7c-4.7,3.9-10.2,5.8-16.3,5.8c-14.9,0-22.5-6.6-22.7-19.9c0-1.6,0.1-3.1,0.2-4.6
			c0.2-1.5,0.4-3,0.7-4.6l1.2-6.4c1.7-8.6,5-15.1,10-19.6c4.9-4.5,11.3-6.7,19.1-6.7c6.4,0,11.4,1.4,14.9,4.2
			c3.5,2.8,5.3,6.8,5.3,12c0,5.9-2,10.5-6,13.8c-4,3.3-9.6,5-16.7,5H624c-0.5,2-0.7,4.3-0.7,6.9C623.4,68.6,626.7,71.4,633.1,71.4
			L633.1,71.4z M640.2,31.7c-7.2,0-12,4.7-14.2,14.2h11.9c3.5,0,6.2-0.7,8.1-2.1c1.9-1.4,2.8-3.4,2.8-6
			C648.8,33.7,645.9,31.7,640.2,31.7L640.2,31.7z"/>
		<path d="M696.4,10.3l-2.6,12.2h10c1.5,0,2.2,0.6,2.2,1.9c0,0.6,0,1-0.1,1.2l-1,4.7c-0.3,1.3-0.7,2.1-1.1,2.5s-1.2,0.6-2.3,0.6
			h-9.8l-6,28.1c-0.3,1.6-0.5,2.7-0.5,3.4c0,3.1,2,4.7,5.9,4.7h4.9c1.5,0,2.2,0.7,2.2,2.1c0,0.4,0,0.8-0.1,1l-1.1,5.3
			c-0.3,1.3-0.8,2.2-1.6,2.6c-0.8,0.4-2.3,0.6-4.7,0.6H689c-5.9,0-10.2-1.1-13-3.4c-2.8-2.3-4.2-5.8-4.2-10.7c0-1.1,0-2.2,0.2-3.4
			c0.1-1.2,0.3-2.6,0.7-4.1l5.6-26.1h-5.8c-1.6,0-2.3-0.6-2.3-1.8c0-0.1,0-0.3,0-0.6c0-0.2,0.1-0.5,0.2-0.8l1-4.7
			c0.3-1.3,0.7-2.1,1.1-2.5s1.2-0.6,2.3-0.6h5.7l2.8-13.2c0.3-1.3,0.8-2.1,1.3-2.6s1.6-0.7,3-0.7h6.3c1.8,0,2.7,0.8,2.7,2.3
			C696.6,8.9,696.5,9.5,696.4,10.3L696.4,10.3z"/>
		<path d="M737.5,10.3L735,22.5h10c1.5,0,2.2,0.6,2.2,1.9c0,0.6,0,1-0.1,1.2l-1,4.7c-0.3,1.3-0.7,2.1-1.1,2.5s-1.2,0.6-2.3,0.6h-9.8
			l-6,28.1c-0.3,1.6-0.5,2.7-0.5,3.4c0,3.1,2,4.7,5.9,4.7h4.9c1.5,0,2.2,0.7,2.2,2.1c0,0.4,0,0.8-0.1,1l-1.1,5.3
			c-0.3,1.3-0.8,2.2-1.6,2.6c-0.8,0.4-2.3,0.6-4.7,0.6h-1.7c-5.9,0-10.2-1.1-13-3.4c-2.8-2.3-4.2-5.8-4.2-10.7c0-1.1,0-2.2,0.2-3.4
			c0.1-1.2,0.3-2.6,0.7-4.1l5.6-26.1h-5.8c-1.6,0-2.3-0.6-2.3-1.8c0-0.1,0-0.3,0-0.6c0-0.2,0.1-0.5,0.2-0.8l1-4.7
			c0.3-1.3,0.7-2.1,1.1-2.5s1.2-0.6,2.3-0.6h5.7l2.8-13.2c0.3-1.3,0.8-2.1,1.3-2.6s1.6-0.7,3-0.7h6.3c1.8,0,2.7,0.8,2.7,2.3
			C737.8,8.9,737.7,9.5,737.5,10.3L737.5,10.3z"/>
		<path d="M771.2,71.4c2.4,0,4.4-0.4,6-1.3c1.6-0.9,3.1-2.4,4.4-4.5c0.7-1.3,1.9-1.9,3.8-1.9h6c1.9,0,2.8,0.6,2.9,1.8
			c0,1.6-0.6,3.5-1.9,5.7s-2.9,4.1-4.8,5.7c-4.7,3.9-10.2,5.8-16.3,5.8c-14.9,0-22.5-6.6-22.7-19.9c0-1.6,0.1-3.1,0.2-4.6
			c0.2-1.5,0.4-3,0.7-4.6l1.2-6.4c1.7-8.6,5-15.1,10-19.6c4.9-4.5,11.3-6.7,19.1-6.7c6.4,0,11.4,1.4,14.9,4.2
			c3.5,2.8,5.3,6.8,5.3,12c0,5.9-2,10.5-6,13.8c-4,3.3-9.6,5-16.7,5h-15.1c-0.5,2-0.7,4.3-0.7,6.9C761.6,68.6,764.8,71.4,771.2,71.4
			L771.2,71.4z M778.3,31.7c-7.2,0-12,4.7-14.2,14.2h11.9c3.5,0,6.2-0.7,8.1-2.1c1.9-1.4,2.8-3.4,2.8-6
			C786.9,33.7,784,31.7,778.3,31.7L778.3,31.7z"/>
	</g>
	<line class="st0" x1="484.9" y1="126" x2="484.9" y2="166.2"/>
	
		<linearGradient id="SVGID_1_" gradientUnits="userSpaceOnUse" x1="-9.094947e-13" y1="23.7873" x2="104.5891" y2="23.7873" gradientTransform="matrix(1 0 0 -1 0 169.89)">
		<stop  offset="0" style="stop-color:#157FFF"/>
		<stop  offset="1" style="stop-color:#28CABF"/>
	</linearGradient>
	<path class="st1" d="M85.6,124.3c-5.1,0-10.1,1.6-14.4,4.2c-0.6,0.3-1.3,0.3-1.8-0.1c-3.2-2.6-7.6-4.1-12.6-4.1s-10.1,1.6-14.4,4.2
		c-0.6,0.3-1.3,0.3-1.8-0.1c-3.2-2.6-7.6-4.1-12.6-4.1c-12.7,0-25.1,9.8-27.5,21.8c-2.5,12,5.8,21.8,18.6,21.8
		c5.1,0,10.1-1.6,14.4-4.2c0.6-0.3,1.3-0.3,1.8,0.1c3.2,2.6,7.6,4.1,12.6,4.1s10.1-1.6,14.4-4.2c0.6-0.3,1.3-0.3,1.8,0.1
		c3.2,2.6,7.6,4.1,12.6,4.1c12.7,0,25.1-9.8,27.5-21.8C106.6,134.1,98.3,124.3,85.6,124.3z"/>
	<path d="M349.1,158.4c0,0,2.5,2.2,7.6,2.2c4.1,0,6-2.4,6-5.3s-2.5-4.5-4.7-5.7l-3.2-1.7c-5.1-2.8-7.3-6.2-7.3-10.5
		c0-7.7,5.2-12.4,12.5-12.4c6,0,9.5,2,9.5,2l-1.6,6.7c-2-1.7-4.3-2.3-6.9-2.3c-3.5,0-5.5,2.2-5.5,5c0,2.3,1.2,3.6,3.3,4.6l3.9,2
		c6.2,3.2,8.3,6.6,8.3,11.4c0,7.8-5.6,12.6-14,12.6c-6.3,0-9.5-1.9-9.5-1.9L349.1,158.4L349.1,158.4L349.1,158.4z M203.8,153.1
		l-3.7-12.9c-0.5-1.8-1.1-4.6-1.1-4.6s-0.6,2.8-1.1,4.6l-3.7,12.9H203.8L203.8,153.1z M216.4,166.7h-9l-2.2-7.6h-12.4l-2.1,7.6h-7.5
		L194,131c0.3-1,0.5-1.6,0.5-2.2c0-1.6-1.2-3-1.2-3h9.9L216.4,166.7L216.4,166.7L216.4,166.7z M321.6,159.8l-1.6,6.8h-20.4v-40.9
		h21.6l-1.6,6.7h-11.9v10.2h11.5l-1.6,6.6h-9.9v10.6L321.6,159.8L321.6,159.8z M222,125.8h8.1v40.9H222V125.8L222,125.8z
		 M278.4,149.3v17.4h-8.1v-40.9h21.6l-1.5,6.7h-11.9v10.2h11.4l-1.5,6.6H278.4z M249.1,149.3v17.4h-8v-40.9h21.6l-1.5,6.7h-12v10.2
		h11.5l-1.5,6.6H249.1L249.1,149.3z M401.4,159.8l-1.6,6.8h-20.4v-40.9h21.6l-1.6,6.7h-12v10.2h11.5l-1.6,6.6h-9.9v10.6L401.4,159.8
		L401.4,159.8z M330.6,125.8h8.1v40.9h-8.1V125.8C330.6,125.8,330.6,125.8,330.6,125.8z M158.8,166.7h-8.1v-41.3
		c6.5,0,10.4-0.4,13.5-0.4c8.4,0,14.5,3.6,14.5,12.5c0,5.4-3.3,9.6-8,10.8c0,0,1.2,1.5,2,3.2l7,15.1h-9.1l-7.8-16.8
		c-2-4.3-3.3-5.1-3.3-5.1c0.8,0.1,1.6,0.1,2.2,0.1c5.9,0,8.7-2.7,8.7-7c0-4.3-3.1-6.2-7.6-6.2c-2.4,0-4,0.2-4,0.2L158.8,166.7
		L158.8,166.7L158.8,166.7z M438.8,166.7h-3.3l-13.3-19.7c-2.5-3.7-5.1-7.9-5.1-7.9s0.1,4.1,0.1,7.9v19.7h-6.7v-34.2
		c0-1.7-0.2-2.7-0.7-4c-0.8-1.6-1.9-2.8-1.9-2.8h9.4l9.5,13.9c2.6,3.7,5.3,8,5.3,8s-0.2-4.3-0.2-8v-13.9h6.7L438.8,166.7
		L438.8,166.7L438.8,166.7z"/>
	<g>
		<path d="M594.8,138.8c-1.2-1.2-2.9-1.8-5.1-1.8c-2.1,0-4.1,0.5-5.8,1.4c-1.7,0.9-3.2,2.1-4.4,3.5c-1.6,2-2.8,4.3-3.5,7
			c-0.6,2.7-1,5.3-1,7.9c0,3.2,0.7,5.7,2.1,7.4c1.4,1.8,3.4,2.7,6.1,2.7c2.2,0,4.2-0.4,6-1.2c1.7-0.8,3.2-1.6,4.3-2.6h0v0
			c0.2-0.4,0.4-1,0.5-1.5c0.1-0.6,0.2-1.2,0.2-1.7v-0.3l-0.2,0.2c-0.6,0.4-1.3,0.8-2.1,1.1c-0.7,0.3-1.5,0.6-2.3,0.8
			c-0.8,0.2-1.6,0.4-2.3,0.5c-0.7,0.1-1.4,0.2-2.1,0.2c-3.2,0-4.7-2.3-4.7-7v-1.6c3.2-0.1,5.9-0.5,7.9-1.1c2.1-0.6,3.7-1.4,4.9-2.3
			c1.2-0.9,2-2,2.5-3.2c0.4-1.1,0.7-2.3,0.7-3.5C596.6,141.6,596,139.9,594.8,138.8 M591.2,146c-0.2,0.7-0.7,1.3-1.4,1.9
			c-0.7,0.6-1.8,1.1-3.3,1.4c-1.4,0.4-3.2,0.6-5.6,0.7c0.1-1,0.4-2,0.6-3c0.3-1,0.7-2,1.2-2.9c0.6-1.1,1.5-2,2.5-2.6
			c1-0.6,2.1-1,3.3-1c1,0,1.8,0.3,2.2,1c0.4,0.7,0.7,1.5,0.7,2.5C591.6,144.6,591.5,145.3,591.2,146"/>
		<path d="M568.2,133.7c0.9,0,1.7-0.3,2.4-0.9c0.6-0.6,0.9-1.5,0.9-2.7c0-1-0.3-1.9-0.9-2.5c-0.6-0.6-1.4-0.9-2.4-0.9
			s-1.7,0.3-2.4,0.9c-0.6,0.6-1,1.4-1,2.4C564.8,132.4,565.9,133.7,568.2,133.7"/>
		<path d="M566.9,161.9c-0.1-0.3-0.1-0.4-0.1-0.4l3-23.9l-0.1,0c-0.2-0.1-0.6-0.1-1.2-0.2c-0.6,0-1-0.1-1.3-0.1
			c-1.2,0-2.3,0.1-3.3,0.4c-1,0.3-1.8,0.6-2.6,1c-0.3,0.3-0.5,0.8-0.8,1.5c-0.2,0.7-0.3,1.2-0.3,1.6v0.2l4.2-0.5l-3,20.8
			c0,0.5,0.2,1.2,0.6,2.1c0.4,0.9,0.9,1.6,1.5,2.3l0,0h0.1c0.4,0,1,0,1.6-0.1c0.6-0.1,1.2-0.2,1.9-0.3c0.6-0.1,1.3-0.2,1.9-0.4
			c0.6-0.1,1.2-0.3,1.7-0.5h0l0-0.1c0.2-0.4,0.5-1,0.7-1.7c0.2-0.7,0.3-1.3,0.3-1.7v-0.2l-4.6,0.5C567,162.2,567,162.1,566.9,161.9"
			/>
		<path d="M552.6,161.8c0-0.1-0.1-0.4-0.1-0.5l4.4-35.7l-0.1,0c-0.2-0.1-0.6-0.1-1.2-0.2c-0.5,0-0.9,0-1.3,0c-1.2,0-2.3,0.1-3.3,0.4
			c-1,0.3-1.9,0.6-2.6,1c-0.3,0.3-0.5,0.8-0.8,1.5c-0.2,0.7-0.3,1.2-0.3,1.6v0.2l4.2-0.5l-1.2,8.5c-0.7-0.3-1.4-0.5-2.1-0.7
			c-0.8-0.2-1.6-0.3-2.4-0.3c-2.3,0-4.4,0.5-6.3,1.6c-1.9,1.1-3.5,2.5-4.7,4.3c-1.2,1.8-2.2,3.8-2.9,6.1c-0.6,2.3-1,4.7-1,7.2
			c0,1.9,0.2,3.5,0.6,4.8c0.4,1.3,0.9,2.4,1.6,3.3c0.7,0.8,1.5,1.5,2.5,1.9c0.9,0.4,2,0.6,3.2,0.6c1.5,0,3-0.3,4.6-1
			c1.6-0.7,3-1.8,4.1-3.3h0.1c0.1,0.7,0.3,1.4,0.6,2.2c0.3,0.8,0.6,1.5,0.9,2.1l0,0.1h0.1c0.4,0,0.9,0,1.5-0.1
			c0.6-0.1,1.2-0.2,1.9-0.3c0.6-0.1,1.3-0.2,1.9-0.4c0.6-0.1,1.2-0.3,1.7-0.5h0l0-0.1c0.2-0.4,0.5-0.9,0.7-1.6
			c0.2-0.7,0.3-1.2,0.3-1.7v-0.2l-4.6,0.4C552.7,162.2,552.7,162,552.6,161.8 M536.5,152.9c0.1-0.9,0.2-1.9,0.4-2.9
			c0.2-0.9,0.4-1.9,0.8-2.8c0.3-0.9,0.7-1.7,1.2-2.4c0.8-1.2,1.8-2.2,3-3.1c1.2-0.8,2.6-1.3,4.2-1.3c0.6,0,1.4,0.1,2.1,0.3
			c0.7,0.2,1.3,0.4,1.8,0.7l-2.2,16.8c-0.8,1.3-1.7,2.4-2.9,3.1c-1.1,0.7-2.3,1-3.5,1c-1.5,0-2.7-0.5-3.6-1.6
			c-0.9-1.1-1.4-2.8-1.4-5.3C536.4,154.7,536.5,153.8,536.5,152.9"/>
		<path d="M791.8,166.2h-8.3v-28.4h6.7l1.2,2.8c1.1-1.9,2.9-3.4,7.3-3.4h1.4l-1,7c0,0-1-0.1-1.7-0.1c-2.5,0-4.3,1.4-5.5,3.5
			L791.8,166.2L791.8,166.2z"/>
		<path d="M664.6,144.3c-2.9,0-4.5,2.7-4.5,7.6c0,4.9,1.6,7.6,4.5,7.6c2.9,0,4.5-2.6,4.5-7.6S667.6,144.3,664.6,144.3 M664.6,166.8
			c-9.6,0-12.9-8-12.9-14.8c0-11,6.7-14.9,12.9-14.9c6.3,0,12.9,3.9,12.9,14.9S670.9,166.8,664.6,166.8"/>
		<path d="M690.1,159.1c0.6,0.3,1.5,0.7,3,0.7c2.3,0,5.4-0.8,5.4-8.2c0-4.9-1.5-7.2-4.6-7.2c-1.4,0-2.7,0.6-3.8,1.8L690.1,159.1
			L690.1,159.1z M692.6,166.8c-6.2,0-9.3-2.2-10.7-3.1l-0.2-0.1v-36.9l8.3-1.1v14.3c1.2-1.2,3.4-2.8,6.8-2.8c6.4,0,10,4.9,10,13.5
			C706.9,161.4,702.1,166.9,692.6,166.8"/>
		<path d="M715.7,135.2c-2.6,0-4.2-1.5-4.2-4.1v-0.2c0-2.6,1.5-4.1,4.2-4.1c2.7,0,4.2,1.5,4.2,4.1v0.2
			C719.9,133.6,718.3,135.2,715.7,135.2 M719.8,166.2h-8.3v-28.4h8.3C719.8,137.8,719.8,166.2,719.8,166.2z"/>
		<polygon points="725.8,166.2 734.1,166.2 734.1,125.6 725.8,126.7 		"/>
		<path d="M744.2,135.2c-2.6,0-4.2-1.5-4.2-4.1v-0.2c0-2.6,1.5-4.1,4.2-4.1c2.7,0,4.2,1.5,4.2,4.1v0.2
			C748.4,133.6,746.9,135.2,744.2,135.2 M748.4,166.2h-8.3v-28.4h8.3C748.4,137.8,748.4,166.2,748.4,166.2z"/>
		<path d="M769.7,158c-0.8,1.1-2.1,1.6-3.7,1.6c-2.2,0-4.8-0.8-4.8-7.5c0-5.2,1.9-7.9,5.8-7.9c1.1,0,1.9,0.1,2.7,0.4V158z
			 M777.9,139.4c-1.2-0.6-4.4-2.3-9.9-2.3c-9.6,0-15.1,5.6-15.1,15.3s3.9,14.5,10.9,14.5c2.3,0,4.8-0.7,6.1-2.4
			c0.2-0.2,0.3-0.4,0.3-0.4l0.9,2.1h6.9v-26.7L777.9,139.4L777.9,139.4z"/>
		<polygon points="637,126.7 627.4,152.6 617.8,126.7 608.9,126.7 606.4,166.2 614.7,166.2 616,144.8 624.2,166.2 630.5,166.2 
			638.7,144.8 640,166.2 648.3,166.2 645.8,126.7 		"/>
	</g>
</g>
</svg>
